<svg width="100" height="50" viewBox="0 0 100 50" fill="none" xmlns="http://www.w3.org/2000/svg">
<path d="M22.9375 32V17.4545H26.8864V28.8182H32.767V32H22.9375Z" fill="#4D2600"/>
<path d="M39.6758 32.1989C38.4921 32.1989 37.4788 31.9645 36.636 31.4957C35.7932 31.0223 35.1469 30.3641 34.6971 29.5213C34.2473 28.6738 34.0224 27.6913 34.0224 26.5739C34.0224 25.4564 34.2473 24.4763 34.6971 23.6335C35.1469 22.786 35.7932 22.1278 36.636 21.6591C37.4788 21.1856 38.4921 20.9489 39.6758 20.9489C40.8595 20.9489 41.8728 21.1856 42.7156 21.6591C43.5584 22.1278 44.2047 22.786 44.6545 23.6335C45.1043 24.4763 45.3292 25.4564 45.3292 26.5739C45.3292 27.6913 45.1043 28.6738 44.6545 29.5213C44.2047 30.3641 43.5584 31.0223 42.7156 31.4957C41.8728 31.9645 40.8595 32.1989 39.6758 32.1989ZM39.7042 29.3011C40.0356 29.3011 40.3221 29.1899 40.5636 28.9673C40.805 28.7448 40.9921 28.4276 41.1246 28.0156C41.2572 27.6037 41.3235 27.1136 41.3235 26.5455C41.3235 25.9725 41.2572 25.4825 41.1246 25.0753C40.9921 24.6634 40.805 24.3461 40.5636 24.1236C40.3221 23.901 40.0356 23.7898 39.7042 23.7898C39.3538 23.7898 39.0532 23.901 38.8022 24.1236C38.5513 24.3461 38.3595 24.6634 38.2269 25.0753C38.0943 25.4825 38.0281 25.9725 38.0281 26.5455C38.0281 27.1136 38.0943 27.6037 38.2269 28.0156C38.3595 28.4276 38.5513 28.7448 38.8022 28.9673C39.0532 29.1899 39.3538 29.3011 39.7042 29.3011Z" fill="#4D2600"/>
<path d="M52.1758 36.3182C51.082 36.3182 50.1445 36.1619 49.3633 35.8494C48.5868 35.5417 47.9831 35.1155 47.5522 34.571C47.1261 34.0312 46.887 33.411 46.8349 32.7102H50.6133C50.6512 32.9422 50.7459 33.1293 50.8974 33.2713C51.0489 33.4134 51.243 33.5152 51.4798 33.5767C51.7212 33.643 51.9911 33.6761 52.2894 33.6761C52.796 33.6761 53.2151 33.553 53.5465 33.3068C53.8827 33.0606 54.0508 32.6155 54.0508 31.9716V30.125H53.9371C53.7951 30.4943 53.5773 30.8092 53.2837 31.0696C52.9902 31.3253 52.6374 31.5218 52.2255 31.6591C51.8136 31.7917 51.3614 31.858 50.869 31.858C50.0924 31.858 49.3775 31.678 48.7241 31.3182C48.0754 30.9583 47.5546 30.3878 47.1616 29.6065C46.7733 28.8253 46.5792 27.8049 46.5792 26.5455C46.5792 25.2292 46.7828 24.1591 47.19 23.3352C47.6019 22.5114 48.1322 21.9077 48.7809 21.5241C49.4343 21.1406 50.1209 20.9489 50.8406 20.9489C51.3803 20.9489 51.8538 21.0436 52.261 21.233C52.6682 21.4176 53.0091 21.6662 53.2837 21.9787C53.5584 22.2865 53.7667 22.625 53.9087 22.9943H53.994V21.0909H57.9144V31.9716C57.9144 32.8949 57.6753 33.6785 57.1971 34.3224C56.7236 34.9711 56.056 35.4659 55.1942 35.8068C54.3325 36.1477 53.3263 36.3182 52.1758 36.3182ZM52.3178 29.0739C52.6777 29.0739 52.9854 28.9744 53.2411 28.7756C53.5015 28.572 53.7004 28.2831 53.8377 27.9091C53.9798 27.5303 54.0508 27.0758 54.0508 26.5455C54.0508 26.0057 53.9798 25.544 53.8377 25.1605C53.7004 24.7723 53.5015 24.4763 53.2411 24.2727C52.9854 24.0644 52.6777 23.9602 52.3178 23.9602C51.958 23.9602 51.6502 24.0644 51.3945 24.2727C51.1436 24.4763 50.9495 24.7723 50.8121 25.1605C50.6796 25.544 50.6133 26.0057 50.6133 26.5455C50.6133 27.0852 50.6796 27.5445 50.8121 27.9233C50.9495 28.2973 51.1436 28.5838 51.3945 28.7827C51.6502 28.9768 51.958 29.0739 52.3178 29.0739Z" fill="#4D2600"/>
<path d="M59.9084 32V21.0909H63.8288V32H59.9084ZM61.8686 19.9545C61.3383 19.9545 60.8838 19.7794 60.505 19.429C60.1262 19.0786 59.9368 18.6572 59.9368 18.1648C59.9368 17.6723 60.1262 17.2509 60.505 16.9006C60.8838 16.5502 61.3383 16.375 61.8686 16.375C62.4036 16.375 62.8582 16.5502 63.2322 16.9006C63.611 17.2509 63.8004 17.6723 63.8004 18.1648C63.8004 18.6572 63.611 19.0786 63.2322 19.429C62.8582 19.7794 62.4036 19.9545 61.8686 19.9545Z" fill="#4D2600"/>
<path d="M69.7468 25.8636V32H65.8264V21.0909H69.5479V23.1648H69.6616C69.8983 22.4735 70.315 21.9313 70.9116 21.5384C71.5129 21.1454 72.2137 20.9489 73.0139 20.9489C73.7856 20.9489 74.4556 21.1264 75.0238 21.4815C75.5967 21.8319 76.0394 22.3149 76.3519 22.9304C76.6692 23.5459 76.8254 24.2491 76.8207 25.0398V32H72.9002V25.8636C72.9049 25.3239 72.7676 24.9001 72.4883 24.5923C72.2137 24.2846 71.8301 24.1307 71.3377 24.1307C71.0157 24.1307 70.734 24.2017 70.4925 24.3438C70.2558 24.4811 70.0735 24.6799 69.9457 24.9403C69.8178 25.196 69.7515 25.5038 69.7468 25.8636Z" fill="#4D2600"/>
<rect x="2.5" y="2.5" width="95" height="45" rx="17.5" stroke="#4D2600" stroke-width="5"/>
</svg>
