<svg width="150" height="30" viewBox="0 0 150 30" fill="none" xmlns="http://www.w3.org/2000/svg">
<path d="M28.0313 11.4012C27.9177 11.0512 27.7038 10.7424 27.416 10.5132C27.1282 10.284 26.7794 10.1445 26.4129 10.1121L19.4532 9.51212L16.725 3.02462C16.583 2.68421 16.3434 2.39343 16.0365 2.18891C15.7295 1.98438 15.3689 1.87524 15 1.87524C14.6312 1.87524 14.2706 1.98438 13.9636 2.18891C13.6566 2.39343 13.4171 2.68421 13.275 3.02462L10.5551 9.51212L3.58714 10.1156C3.21921 10.1466 2.8686 10.2854 2.57927 10.5148C2.28995 10.7442 2.07479 11.0539 1.96077 11.4051C1.84676 11.7562 1.83897 12.1333 1.93837 12.4889C2.03778 12.8444 2.23996 13.1628 2.51956 13.4039L7.80589 18.0234L6.22151 24.8836C6.13773 25.2426 6.16164 25.6183 6.29024 25.9638C6.41884 26.3093 6.64643 26.6092 6.94455 26.826C7.24267 27.0429 7.5981 27.167 7.9664 27.183C8.3347 27.1989 8.69952 27.1059 9.01526 26.9156L14.9918 23.2828L20.9813 26.9156C21.297 27.1059 21.6618 27.1989 22.0301 27.183C22.3984 27.167 22.7539 27.0429 23.052 26.826C23.3501 26.6092 23.5777 26.3093 23.7063 25.9638C23.8349 25.6183 23.8588 25.2426 23.775 24.8836L22.1918 18.0164L27.477 13.4039C27.7565 13.1619 27.9583 12.8427 28.057 12.4864C28.1556 12.13 28.1466 11.7525 28.0313 11.4012ZM26.2477 11.9871L20.9625 16.5996C20.7053 16.8234 20.5139 17.113 20.4091 17.4374C20.3042 17.7618 20.2897 18.1086 20.3672 18.4406L21.9551 25.3125L15.9703 21.6797C15.6784 21.5019 15.3431 21.4078 15.0012 21.4078C14.6593 21.4078 14.324 21.5019 14.0321 21.6797L8.05549 25.3125L9.63284 18.4453C9.71036 18.1133 9.69589 17.7665 9.591 17.4421C9.4861 17.1177 9.29475 16.8281 9.03753 16.6043L3.75003 11.9942C3.7496 11.9906 3.7496 11.9871 3.75003 11.9836L10.7157 11.3813C11.0557 11.3513 11.3812 11.229 11.6569 11.0277C11.9326 10.8263 12.1481 10.5535 12.2801 10.2387L15 3.75939L17.7188 10.2387C17.8508 10.5535 18.0663 10.8263 18.342 11.0277C18.6177 11.229 18.9431 11.3513 19.2832 11.3813L26.25 11.9836V11.9918L26.2477 11.9871Z" fill="#FFFDD0"/>
<path d="M58.0313 11.4012C57.9177 11.0512 57.7038 10.7424 57.416 10.5132C57.1282 10.284 56.7794 10.1445 56.4129 10.1121L49.4532 9.51212L46.725 3.02462C46.583 2.68421 46.3434 2.39343 46.0365 2.18891C45.7295 1.98438 45.3689 1.87524 45 1.87524C44.6312 1.87524 44.2706 1.98438 43.9636 2.18891C43.6566 2.39343 43.4171 2.68421 43.275 3.02462L40.5551 9.51212L33.5871 10.1156C33.2192 10.1466 32.8686 10.2854 32.5793 10.5148C32.2899 10.7442 32.0748 11.0539 31.9608 11.4051C31.8468 11.7562 31.839 12.1333 31.9384 12.4889C32.0378 12.8444 32.24 13.1628 32.5196 13.4039L37.8059 18.0234L36.2215 24.8836C36.1377 25.2426 36.1616 25.6183 36.2902 25.9638C36.4188 26.3093 36.6464 26.6092 36.9446 26.826C37.2427 27.0429 37.5981 27.167 37.9664 27.183C38.3347 27.1989 38.6995 27.1059 39.0153 26.9156L44.9918 23.2828L50.9813 26.9156C51.297 27.1059 51.6618 27.1989 52.0301 27.183C52.3984 27.167 52.7539 27.0429 53.052 26.826C53.3501 26.6092 53.5777 26.3093 53.7063 25.9638C53.8349 25.6183 53.8588 25.2426 53.775 24.8836L52.1918 18.0164L57.477 13.4039C57.7565 13.1619 57.9583 12.8427 58.057 12.4864C58.1556 12.13 58.1466 11.7525 58.0313 11.4012ZM56.2477 11.9871L50.9625 16.5996C50.7053 16.8234 50.5139 17.113 50.4091 17.4374C50.3042 17.7618 50.2897 18.1086 50.3672 18.4406L51.9551 25.3125L45.9703 21.6797C45.6784 21.5019 45.3431 21.4078 45.0012 21.4078C44.6593 21.4078 44.324 21.5019 44.0321 21.6797L38.0555 25.3125L39.6328 18.4453C39.7104 18.1133 39.6959 17.7665 39.591 17.4421C39.4861 17.1177 39.2948 16.8281 39.0375 16.6043L33.75 11.9942C33.7496 11.9906 33.7496 11.9871 33.75 11.9836L40.7157 11.3813C41.0557 11.3513 41.3812 11.229 41.6569 11.0277C41.9326 10.8263 42.1481 10.5535 42.2801 10.2387L45 3.75939L47.7188 10.2387C47.8508 10.5535 48.0663 10.8263 48.342 11.0277C48.6177 11.229 48.9431 11.3513 49.2832 11.3813L56.25 11.9836V11.9918L56.2477 11.9871Z" fill="#FFFDD0"/>
<path d="M88.0313 11.4012C87.9177 11.0512 87.7038 10.7424 87.416 10.5132C87.1282 10.284 86.7794 10.1445 86.4129 10.1121L79.4532 9.51212L76.725 3.02462C76.583 2.68421 76.3434 2.39343 76.0365 2.18891C75.7295 1.98438 75.3689 1.87524 75 1.87524C74.6312 1.87524 74.2706 1.98438 73.9636 2.18891C73.6566 2.39343 73.4171 2.68421 73.275 3.02462L70.5551 9.51212L63.5871 10.1156C63.2192 10.1466 62.8686 10.2854 62.5793 10.5148C62.2899 10.7442 62.0748 11.0539 61.9608 11.4051C61.8468 11.7562 61.839 12.1333 61.9384 12.4889C62.0378 12.8444 62.24 13.1628 62.5196 13.4039L67.8059 18.0234L66.2215 24.8836C66.1377 25.2426 66.1616 25.6183 66.2902 25.9638C66.4188 26.3093 66.6464 26.6092 66.9446 26.826C67.2427 27.0429 67.5981 27.167 67.9664 27.183C68.3347 27.1989 68.6995 27.1059 69.0153 26.9156L74.9918 23.2828L80.9813 26.9156C81.297 27.1059 81.6618 27.1989 82.0301 27.183C82.3984 27.167 82.7539 27.0429 83.052 26.826C83.3501 26.6092 83.5777 26.3093 83.7063 25.9638C83.8349 25.6183 83.8588 25.2426 83.775 24.8836L82.1918 18.0164L87.477 13.4039C87.7565 13.1619 87.9583 12.8427 88.057 12.4864C88.1556 12.13 88.1466 11.7525 88.0313 11.4012ZM86.2477 11.9871L80.9625 16.5996C80.7053 16.8234 80.5139 17.113 80.4091 17.4374C80.3042 17.7618 80.2897 18.1086 80.3672 18.4406L81.9551 25.3125L75.9703 21.6797C75.6784 21.5019 75.3431 21.4078 75.0012 21.4078C74.6593 21.4078 74.324 21.5019 74.0321 21.6797L68.0555 25.3125L69.6328 18.4453C69.7104 18.1133 69.6959 17.7665 69.591 17.4421C69.4861 17.1177 69.2948 16.8281 69.0375 16.6043L63.75 11.9942C63.7496 11.9906 63.7496 11.9871 63.75 11.9836L70.7157 11.3813C71.0557 11.3513 71.3812 11.229 71.6569 11.0277C71.9326 10.8263 72.1481 10.5535 72.2801 10.2387L75 3.75939L77.7188 10.2387C77.8508 10.5535 78.0663 10.8263 78.342 11.0277C78.6177 11.229 78.9431 11.3513 79.2832 11.3813L86.25 11.9836V11.9918L86.2477 11.9871Z" fill="#FFFDD0"/>
<path d="M118.031 11.4012C117.918 11.0512 117.704 10.7424 117.416 10.5132C117.128 10.284 116.779 10.1445 116.413 10.1121L109.453 9.51212L106.725 3.02462C106.583 2.68421 106.343 2.39343 106.036 2.18891C105.729 1.98438 105.369 1.87524 105 1.87524C104.631 1.87524 104.271 1.98438 103.964 2.18891C103.657 2.39343 103.417 2.68421 103.275 3.02462L100.555 9.51212L93.5871 10.1156C93.2192 10.1466 92.8686 10.2854 92.5793 10.5148C92.2899 10.7442 92.0748 11.0539 91.9608 11.4051C91.8468 11.7562 91.839 12.1333 91.9384 12.4889C92.0378 12.8444 92.24 13.1628 92.5196 13.4039L97.8059 18.0234L96.2215 24.8836C96.1377 25.2426 96.1616 25.6183 96.2902 25.9638C96.4188 26.3093 96.6464 26.6092 96.9446 26.826C97.2427 27.0429 97.5981 27.167 97.9664 27.183C98.3347 27.1989 98.6995 27.1059 99.0153 26.9156L104.992 23.2828L110.981 26.9156C111.297 27.1059 111.662 27.1989 112.03 27.183C112.398 27.167 112.754 27.0429 113.052 26.826C113.35 26.6092 113.578 26.3093 113.706 25.9638C113.835 25.6183 113.859 25.2426 113.775 24.8836L112.192 18.0164L117.477 13.4039C117.757 13.1619 117.958 12.8427 118.057 12.4864C118.156 12.13 118.147 11.7525 118.031 11.4012ZM116.248 11.9871L110.963 16.5996C110.705 16.8234 110.514 17.113 110.409 17.4374C110.304 17.7618 110.29 18.1086 110.367 18.4406L111.955 25.3125L105.97 21.6797C105.678 21.5019 105.343 21.4078 105.001 21.4078C104.659 21.4078 104.324 21.5019 104.032 21.6797L98.0555 25.3125L99.6328 18.4453C99.7104 18.1133 99.6959 17.7665 99.591 17.4421C99.4861 17.1177 99.2948 16.8281 99.0375 16.6043L93.75 11.9942C93.7496 11.9906 93.7496 11.9871 93.75 11.9836L100.716 11.3813C101.056 11.3513 101.381 11.229 101.657 11.0277C101.933 10.8263 102.148 10.5535 102.28 10.2387L105 3.75939L107.719 10.2387C107.851 10.5535 108.066 10.8263 108.342 11.0277C108.618 11.229 108.943 11.3513 109.283 11.3813L116.25 11.9836V11.9918L116.248 11.9871Z" fill="#FFFDD0"/>
<path d="M148.031 11.4012C147.918 11.0512 147.704 10.7424 147.416 10.5132C147.128 10.284 146.779 10.1445 146.413 10.1121L139.453 9.51212L136.725 3.02462C136.583 2.68421 136.343 2.39343 136.036 2.18891C135.729 1.98438 135.369 1.87524 135 1.87524C134.631 1.87524 134.271 1.98438 133.964 2.18891C133.657 2.39343 133.417 2.68421 133.275 3.02462L130.555 9.51212L123.587 10.1156C123.219 10.1466 122.869 10.2854 122.579 10.5148C122.29 10.7442 122.075 11.0539 121.961 11.4051C121.847 11.7562 121.839 12.1333 121.938 12.4889C122.038 12.8444 122.24 13.1628 122.52 13.4039L127.806 18.0234L126.222 24.8836C126.138 25.2426 126.162 25.6183 126.29 25.9638C126.419 26.3093 126.646 26.6092 126.945 26.826C127.243 27.0429 127.598 27.167 127.966 27.183C128.335 27.1989 128.7 27.1059 129.015 26.9156L134.992 23.2828L140.981 26.9156C141.297 27.1059 141.662 27.1989 142.03 27.183C142.398 27.167 142.754 27.0429 143.052 26.826C143.35 26.6092 143.578 26.3093 143.706 25.9638C143.835 25.6183 143.859 25.2426 143.775 24.8836L142.192 18.0164L147.477 13.4039C147.757 13.1619 147.958 12.8427 148.057 12.4864C148.156 12.13 148.147 11.7525 148.031 11.4012ZM146.248 11.9871L140.963 16.5996C140.705 16.8234 140.514 17.113 140.409 17.4374C140.304 17.7618 140.29 18.1086 140.367 18.4406L141.955 25.3125L135.97 21.6797C135.678 21.5019 135.343 21.4078 135.001 21.4078C134.659 21.4078 134.324 21.5019 134.032 21.6797L128.055 25.3125L129.633 18.4453C129.71 18.1133 129.696 17.7665 129.591 17.4421C129.486 17.1177 129.295 16.8281 129.038 16.6043L123.75 11.9942C123.75 11.9906 123.75 11.9871 123.75 11.9836L130.716 11.3813C131.056 11.3513 131.381 11.229 131.657 11.0277C131.933 10.8263 132.148 10.5535 132.28 10.2387L135 3.75939L137.719 10.2387C137.851 10.5535 138.066 10.8263 138.342 11.0277C138.618 11.229 138.943 11.3513 139.283 11.3813L146.25 11.9836V11.9918L146.248 11.9871Z" fill="#FFFDD0"/>
</svg>
